<mxfile host="app.diagrams.net" modified="2023-05-10T06:55:27.618Z" agent="Mozilla/5.0 (Windows NT 10.0; Win64; x64) AppleWebKit/537.36 (KHTML, like Gecko) Chrome/113.0.0.0 Safari/537.36" etag="K3v5O2cZS442EmIZqysO" version="21.2.9" type="device">
  <diagram id="R2lEEEUBdFMjLlhIrx00" name="Page-1">
    <mxGraphModel dx="1433" dy="1701" grid="1" gridSize="10" guides="1" tooltips="1" connect="1" arrows="1" fold="1" page="1" pageScale="1" pageWidth="850" pageHeight="1100" math="0" shadow="0" extFonts="Permanent Marker^https://fonts.googleapis.com/css?family=Permanent+Marker">
      <root>
        <mxCell id="0" />
        <mxCell id="1" parent="0" />
        <mxCell id="v-mCjUrIHsIha3mUhuW3-1" value="&lt;b&gt;BROKER&lt;/b&gt;" style="rounded=0;whiteSpace=wrap;html=1;" parent="1" vertex="1">
          <mxGeometry x="140" y="20" width="120" height="60" as="geometry" />
        </mxCell>
        <mxCell id="v-mCjUrIHsIha3mUhuW3-2" value="&lt;b&gt;COMPANIE&lt;/b&gt;" style="rounded=0;whiteSpace=wrap;html=1;" parent="1" vertex="1">
          <mxGeometry x="20" y="310" width="120" height="60" as="geometry" />
        </mxCell>
        <mxCell id="v-mCjUrIHsIha3mUhuW3-3" value="&lt;b&gt;ACȚIONARIAT&lt;/b&gt;" style="rounded=0;whiteSpace=wrap;html=1;" parent="1" vertex="1">
          <mxGeometry x="220" y="240" width="120" height="60" as="geometry" />
        </mxCell>
        <mxCell id="v-mCjUrIHsIha3mUhuW3-4" value="&lt;b&gt;OBLIGAȚIUNE&lt;/b&gt;" style="rounded=0;whiteSpace=wrap;html=1;" parent="1" vertex="1">
          <mxGeometry x="410" y="410" width="120" height="60" as="geometry" />
        </mxCell>
        <mxCell id="v-mCjUrIHsIha3mUhuW3-6" value="&lt;b&gt;PORTOFOLIU&lt;/b&gt;" style="rounded=0;whiteSpace=wrap;html=1;" parent="1" vertex="1">
          <mxGeometry x="410" y="130" width="120" height="60" as="geometry" />
        </mxCell>
        <mxCell id="v-mCjUrIHsIha3mUhuW3-7" value="&lt;b&gt;CLIENT&lt;/b&gt;" style="rounded=0;whiteSpace=wrap;html=1;" parent="1" vertex="1">
          <mxGeometry x="410" y="-50" width="120" height="60" as="geometry" />
        </mxCell>
        <mxCell id="v-mCjUrIHsIha3mUhuW3-8" value="&lt;b&gt;ORDIN&lt;/b&gt;" style="rounded=0;whiteSpace=wrap;html=1;" parent="1" vertex="1">
          <mxGeometry x="410" y="280" width="120" height="60" as="geometry" />
        </mxCell>
        <mxCell id="v-mCjUrIHsIha3mUhuW3-9" value="&lt;b&gt;ACȚIUNE&lt;/b&gt;" style="rounded=0;whiteSpace=wrap;html=1;" parent="1" vertex="1">
          <mxGeometry x="260" y="368" width="120" height="60" as="geometry" />
        </mxCell>
        <mxCell id="v-mCjUrIHsIha3mUhuW3-10" value="&lt;b&gt;ETF&lt;/b&gt;" style="rounded=0;whiteSpace=wrap;html=1;" parent="1" vertex="1">
          <mxGeometry x="620" y="410" width="120" height="60" as="geometry" />
        </mxCell>
        <mxCell id="v-mCjUrIHsIha3mUhuW3-11" value="&lt;b&gt;DIVIDEND&lt;/b&gt;" style="rounded=0;whiteSpace=wrap;html=1;" parent="1" vertex="1">
          <mxGeometry x="210" y="490" width="120" height="60" as="geometry" />
        </mxCell>
        <mxCell id="v-mCjUrIHsIha3mUhuW3-12" value="&lt;b&gt;COMISION&lt;/b&gt;" style="rounded=0;whiteSpace=wrap;html=1;" parent="1" vertex="1">
          <mxGeometry x="140" y="150" width="120" height="60" as="geometry" />
        </mxCell>
        <mxCell id="v-mCjUrIHsIha3mUhuW3-13" value="" style="endArrow=none;html=1;rounded=0;entryX=0;entryY=0.5;entryDx=0;entryDy=0;exitX=1;exitY=0.5;exitDx=0;exitDy=0;" parent="1" source="v-mCjUrIHsIha3mUhuW3-1" target="v-mCjUrIHsIha3mUhuW3-7" edge="1">
          <mxGeometry width="50" height="50" relative="1" as="geometry">
            <mxPoint x="280" y="45" as="sourcePoint" />
            <mxPoint x="370" y="55" as="targetPoint" />
          </mxGeometry>
        </mxCell>
        <mxCell id="v-mCjUrIHsIha3mUhuW3-15" value="1" style="text;html=1;align=center;verticalAlign=middle;resizable=0;points=[];autosize=1;strokeColor=none;fillColor=none;" parent="1" vertex="1">
          <mxGeometry x="255" y="18" width="30" height="30" as="geometry" />
        </mxCell>
        <mxCell id="v-mCjUrIHsIha3mUhuW3-16" value="M(1)" style="text;html=1;align=center;verticalAlign=middle;resizable=0;points=[];autosize=1;strokeColor=none;fillColor=none;" parent="1" vertex="1">
          <mxGeometry x="360" y="-40" width="50" height="30" as="geometry" />
        </mxCell>
        <mxCell id="v-mCjUrIHsIha3mUhuW3-17" value="are" style="text;html=1;align=center;verticalAlign=middle;resizable=0;points=[];autosize=1;strokeColor=none;fillColor=none;" parent="1" vertex="1">
          <mxGeometry x="310" y="-10" width="40" height="30" as="geometry" />
        </mxCell>
        <mxCell id="v-mCjUrIHsIha3mUhuW3-18" value="" style="endArrow=none;html=1;rounded=0;entryX=0.5;entryY=1;entryDx=0;entryDy=0;exitX=0.5;exitY=0;exitDx=0;exitDy=0;" parent="1" source="v-mCjUrIHsIha3mUhuW3-6" target="v-mCjUrIHsIha3mUhuW3-7" edge="1">
          <mxGeometry width="50" height="50" relative="1" as="geometry">
            <mxPoint x="469.5" y="150" as="sourcePoint" />
            <mxPoint x="480" y="90" as="targetPoint" />
          </mxGeometry>
        </mxCell>
        <mxCell id="v-mCjUrIHsIha3mUhuW3-19" value="1" style="text;html=1;align=center;verticalAlign=middle;resizable=0;points=[];autosize=1;strokeColor=none;fillColor=none;" parent="1" vertex="1">
          <mxGeometry x="470" y="10" width="30" height="30" as="geometry" />
        </mxCell>
        <mxCell id="v-mCjUrIHsIha3mUhuW3-20" value="M(1)" style="text;html=1;align=center;verticalAlign=middle;resizable=0;points=[];autosize=1;strokeColor=none;fillColor=none;" parent="1" vertex="1">
          <mxGeometry x="465" y="100" width="50" height="30" as="geometry" />
        </mxCell>
        <mxCell id="v-mCjUrIHsIha3mUhuW3-21" value="deține" style="text;html=1;align=center;verticalAlign=middle;resizable=0;points=[];autosize=1;strokeColor=none;fillColor=none;" parent="1" vertex="1">
          <mxGeometry x="460" y="60" width="60" height="30" as="geometry" />
        </mxCell>
        <mxCell id="v-mCjUrIHsIha3mUhuW3-22" value="conține" style="text;html=1;align=center;verticalAlign=middle;resizable=0;points=[];autosize=1;strokeColor=none;fillColor=none;" parent="1" vertex="1">
          <mxGeometry x="465" y="220" width="60" height="30" as="geometry" />
        </mxCell>
        <mxCell id="v-mCjUrIHsIha3mUhuW3-23" value="" style="endArrow=none;html=1;rounded=0;entryX=0.5;entryY=1;entryDx=0;entryDy=0;exitX=0.5;exitY=0;exitDx=0;exitDy=0;" parent="1" source="v-mCjUrIHsIha3mUhuW3-8" target="v-mCjUrIHsIha3mUhuW3-6" edge="1">
          <mxGeometry width="50" height="50" relative="1" as="geometry">
            <mxPoint x="470" y="265" as="sourcePoint" />
            <mxPoint x="461" y="205" as="targetPoint" />
            <Array as="points" />
          </mxGeometry>
        </mxCell>
        <mxCell id="Xh2mgVxemoYsKX0X48Lp-3" value="M(0)" style="text;html=1;align=center;verticalAlign=middle;resizable=0;points=[];autosize=1;strokeColor=none;fillColor=none;" parent="1" vertex="1">
          <mxGeometry x="465" y="255" width="50" height="30" as="geometry" />
        </mxCell>
        <mxCell id="Xh2mgVxemoYsKX0X48Lp-4" value="1" style="text;html=1;align=center;verticalAlign=middle;resizable=0;points=[];autosize=1;strokeColor=none;fillColor=none;" parent="1" vertex="1">
          <mxGeometry x="470" y="188" width="30" height="30" as="geometry" />
        </mxCell>
        <mxCell id="Xh2mgVxemoYsKX0X48Lp-5" value="" style="endArrow=none;html=1;rounded=0;entryX=0.5;entryY=1;entryDx=0;entryDy=0;exitX=0.5;exitY=0;exitDx=0;exitDy=0;" parent="1" source="v-mCjUrIHsIha3mUhuW3-12" target="v-mCjUrIHsIha3mUhuW3-1" edge="1">
          <mxGeometry width="50" height="50" relative="1" as="geometry">
            <mxPoint x="190" y="150" as="sourcePoint" />
            <mxPoint x="240" y="100" as="targetPoint" />
          </mxGeometry>
        </mxCell>
        <mxCell id="Xh2mgVxemoYsKX0X48Lp-6" value="percepe" style="text;html=1;align=center;verticalAlign=middle;resizable=0;points=[];autosize=1;strokeColor=none;fillColor=none;" parent="1" vertex="1">
          <mxGeometry x="190" y="100" width="70" height="30" as="geometry" />
        </mxCell>
        <mxCell id="Xh2mgVxemoYsKX0X48Lp-7" value="1" style="text;html=1;align=center;verticalAlign=middle;resizable=0;points=[];autosize=1;strokeColor=none;fillColor=none;" parent="1" vertex="1">
          <mxGeometry x="200" y="80" width="30" height="30" as="geometry" />
        </mxCell>
        <mxCell id="Xh2mgVxemoYsKX0X48Lp-8" value="1" style="text;html=1;align=center;verticalAlign=middle;resizable=0;points=[];autosize=1;strokeColor=none;fillColor=none;" parent="1" vertex="1">
          <mxGeometry x="200" y="120" width="30" height="30" as="geometry" />
        </mxCell>
        <mxCell id="Xh2mgVxemoYsKX0X48Lp-9" value="" style="endArrow=none;html=1;rounded=0;exitX=0;exitY=0.5;exitDx=0;exitDy=0;entryX=0.5;entryY=1;entryDx=0;entryDy=0;" parent="1" source="v-mCjUrIHsIha3mUhuW3-11" target="v-mCjUrIHsIha3mUhuW3-2" edge="1">
          <mxGeometry width="50" height="50" relative="1" as="geometry">
            <mxPoint x="50" y="420" as="sourcePoint" />
            <mxPoint x="100" y="370" as="targetPoint" />
          </mxGeometry>
        </mxCell>
        <mxCell id="Xh2mgVxemoYsKX0X48Lp-10" value="" style="endArrow=none;html=1;rounded=0;entryX=1;entryY=0.5;entryDx=0;entryDy=0;exitX=0;exitY=0.5;exitDx=0;exitDy=0;" parent="1" source="v-mCjUrIHsIha3mUhuW3-3" target="v-mCjUrIHsIha3mUhuW3-2" edge="1">
          <mxGeometry width="50" height="50" relative="1" as="geometry">
            <mxPoint x="220" y="410" as="sourcePoint" />
            <mxPoint x="140" y="330" as="targetPoint" />
          </mxGeometry>
        </mxCell>
        <mxCell id="Xh2mgVxemoYsKX0X48Lp-11" value="oferă" style="text;html=1;align=center;verticalAlign=middle;resizable=0;points=[];autosize=1;strokeColor=none;fillColor=none;" parent="1" vertex="1">
          <mxGeometry x="90" y="420" width="50" height="30" as="geometry" />
        </mxCell>
        <mxCell id="Xh2mgVxemoYsKX0X48Lp-12" value="1" style="text;html=1;align=center;verticalAlign=middle;resizable=0;points=[];autosize=1;strokeColor=none;fillColor=none;" parent="1" vertex="1">
          <mxGeometry x="65" y="368" width="30" height="30" as="geometry" />
        </mxCell>
        <mxCell id="Xh2mgVxemoYsKX0X48Lp-14" value="M(0)" style="text;html=1;align=center;verticalAlign=middle;resizable=0;points=[];autosize=1;strokeColor=none;fillColor=none;" parent="1" vertex="1">
          <mxGeometry x="160" y="505" width="50" height="30" as="geometry" />
        </mxCell>
        <mxCell id="Xh2mgVxemoYsKX0X48Lp-15" value="are" style="text;html=1;align=center;verticalAlign=middle;resizable=0;points=[];autosize=1;strokeColor=none;fillColor=none;" parent="1" vertex="1">
          <mxGeometry x="160" y="270" width="40" height="30" as="geometry" />
        </mxCell>
        <mxCell id="Xh2mgVxemoYsKX0X48Lp-17" value="M(1)" style="text;html=1;align=center;verticalAlign=middle;resizable=0;points=[];autosize=1;strokeColor=none;fillColor=none;" parent="1" vertex="1">
          <mxGeometry x="120" y="285" width="50" height="30" as="geometry" />
        </mxCell>
        <mxCell id="Xh2mgVxemoYsKX0X48Lp-18" value="M(1)" style="text;html=1;align=center;verticalAlign=middle;resizable=0;points=[];autosize=1;strokeColor=none;fillColor=none;" parent="1" vertex="1">
          <mxGeometry x="180" y="240" width="50" height="30" as="geometry" />
        </mxCell>
        <mxCell id="Xh2mgVxemoYsKX0X48Lp-19" value="&amp;nbsp;" style="text;html=1;align=center;verticalAlign=middle;resizable=0;points=[];autosize=1;strokeColor=none;fillColor=none;" parent="1" vertex="1">
          <mxGeometry x="655" y="228" width="30" height="30" as="geometry" />
        </mxCell>
        <mxCell id="Xh2mgVxemoYsKX0X48Lp-20" value="" style="endArrow=none;html=1;rounded=0;entryX=0.5;entryY=1;entryDx=0;entryDy=0;exitX=0.5;exitY=0;exitDx=0;exitDy=0;" parent="1" source="v-mCjUrIHsIha3mUhuW3-4" target="v-mCjUrIHsIha3mUhuW3-8" edge="1">
          <mxGeometry width="50" height="50" relative="1" as="geometry">
            <mxPoint x="420" y="398" as="sourcePoint" />
            <mxPoint x="470" y="348" as="targetPoint" />
          </mxGeometry>
        </mxCell>
        <mxCell id="Xh2mgVxemoYsKX0X48Lp-21" value="conține" style="text;html=1;align=center;verticalAlign=middle;resizable=0;points=[];autosize=1;strokeColor=none;fillColor=none;" parent="1" vertex="1">
          <mxGeometry x="470" y="360" width="60" height="30" as="geometry" />
        </mxCell>
        <mxCell id="Xh2mgVxemoYsKX0X48Lp-22" value="emite" style="text;html=1;align=center;verticalAlign=middle;resizable=0;points=[];autosize=1;strokeColor=none;fillColor=none;" parent="1" vertex="1">
          <mxGeometry x="155" y="360" width="50" height="30" as="geometry" />
        </mxCell>
        <mxCell id="Xh2mgVxemoYsKX0X48Lp-23" value="" style="endArrow=none;html=1;rounded=0;entryX=0;entryY=0.5;entryDx=0;entryDy=0;exitX=0.877;exitY=0.983;exitDx=0;exitDy=0;exitPerimeter=0;" parent="1" source="v-mCjUrIHsIha3mUhuW3-2" target="v-mCjUrIHsIha3mUhuW3-9" edge="1">
          <mxGeometry width="50" height="50" relative="1" as="geometry">
            <mxPoint x="155" y="380" as="sourcePoint" />
            <mxPoint x="180" y="368" as="targetPoint" />
          </mxGeometry>
        </mxCell>
        <mxCell id="Xh2mgVxemoYsKX0X48Lp-26" value="M(1)" style="text;html=1;align=center;verticalAlign=middle;resizable=0;points=[];autosize=1;strokeColor=none;fillColor=none;" parent="1" vertex="1">
          <mxGeometry x="190" y="368" width="50" height="30" as="geometry" />
        </mxCell>
        <mxCell id="Xh2mgVxemoYsKX0X48Lp-27" value="1" style="text;html=1;align=center;verticalAlign=middle;resizable=0;points=[];autosize=1;strokeColor=none;fillColor=none;" parent="1" vertex="1">
          <mxGeometry x="140" y="350" width="30" height="30" as="geometry" />
        </mxCell>
        <mxCell id="Xh2mgVxemoYsKX0X48Lp-28" value="conține" style="text;html=1;align=center;verticalAlign=middle;resizable=0;points=[];autosize=1;strokeColor=none;fillColor=none;" parent="1" vertex="1">
          <mxGeometry x="595" y="330" width="60" height="30" as="geometry" />
        </mxCell>
        <mxCell id="Xh2mgVxemoYsKX0X48Lp-29" value="conține" style="text;html=1;align=center;verticalAlign=middle;resizable=0;points=[];autosize=1;strokeColor=none;fillColor=none;" parent="1" vertex="1">
          <mxGeometry x="340" y="308" width="60" height="30" as="geometry" />
        </mxCell>
        <mxCell id="Xh2mgVxemoYsKX0X48Lp-30" value="" style="endArrow=none;html=1;rounded=0;entryX=1;entryY=0.5;entryDx=0;entryDy=0;exitX=0.5;exitY=0;exitDx=0;exitDy=0;" parent="1" source="v-mCjUrIHsIha3mUhuW3-10" target="v-mCjUrIHsIha3mUhuW3-8" edge="1">
          <mxGeometry width="50" height="50" relative="1" as="geometry">
            <mxPoint x="580" y="390" as="sourcePoint" />
            <mxPoint x="630" y="340" as="targetPoint" />
          </mxGeometry>
        </mxCell>
        <mxCell id="Xh2mgVxemoYsKX0X48Lp-32" value="" style="endArrow=none;html=1;rounded=0;entryX=-0.027;entryY=0.39;entryDx=0;entryDy=0;entryPerimeter=0;exitX=1;exitY=0;exitDx=0;exitDy=0;" parent="1" source="v-mCjUrIHsIha3mUhuW3-9" target="v-mCjUrIHsIha3mUhuW3-8" edge="1">
          <mxGeometry width="50" height="50" relative="1" as="geometry">
            <mxPoint x="400" y="330" as="sourcePoint" />
            <mxPoint x="450" y="280" as="targetPoint" />
          </mxGeometry>
        </mxCell>
        <mxCell id="Xh2mgVxemoYsKX0X48Lp-33" value="1" style="text;html=1;align=center;verticalAlign=middle;resizable=0;points=[];autosize=1;strokeColor=none;fillColor=none;" parent="1" vertex="1">
          <mxGeometry x="380" y="280" width="30" height="30" as="geometry" />
        </mxCell>
        <mxCell id="Xh2mgVxemoYsKX0X48Lp-34" value="1" style="text;html=1;align=center;verticalAlign=middle;resizable=0;points=[];autosize=1;strokeColor=none;fillColor=none;" parent="1" vertex="1">
          <mxGeometry x="470" y="338" width="30" height="30" as="geometry" />
        </mxCell>
        <mxCell id="Xh2mgVxemoYsKX0X48Lp-36" value="M(0)" style="text;html=1;align=center;verticalAlign=middle;resizable=0;points=[];autosize=1;strokeColor=none;fillColor=none;" parent="1" vertex="1">
          <mxGeometry x="465" y="385" width="50" height="30" as="geometry" />
        </mxCell>
        <mxCell id="Xh2mgVxemoYsKX0X48Lp-37" value="1" style="text;html=1;align=center;verticalAlign=middle;resizable=0;points=[];autosize=1;strokeColor=none;fillColor=none;" parent="1" vertex="1">
          <mxGeometry x="525" y="285" width="30" height="30" as="geometry" />
        </mxCell>
        <mxCell id="Xh2mgVxemoYsKX0X48Lp-38" value="M(0)" style="text;html=1;align=center;verticalAlign=middle;resizable=0;points=[];autosize=1;strokeColor=none;fillColor=none;" parent="1" vertex="1">
          <mxGeometry x="670" y="385" width="50" height="30" as="geometry" />
        </mxCell>
        <mxCell id="Xh2mgVxemoYsKX0X48Lp-39" value="M(0)" style="text;html=1;align=center;verticalAlign=middle;resizable=0;points=[];autosize=1;strokeColor=none;fillColor=none;" parent="1" vertex="1">
          <mxGeometry x="340" y="340" width="50" height="30" as="geometry" />
        </mxCell>
        <mxCell id="hiScEYmqXI0lTK3PaLVx-1" value="" style="endArrow=none;html=1;rounded=0;exitX=0.75;exitY=0;exitDx=0;exitDy=0;" edge="1" parent="1" source="v-mCjUrIHsIha3mUhuW3-9">
          <mxGeometry width="50" height="50" relative="1" as="geometry">
            <mxPoint x="320" y="130" as="sourcePoint" />
            <mxPoint x="350" y="170" as="targetPoint" />
          </mxGeometry>
        </mxCell>
        <mxCell id="hiScEYmqXI0lTK3PaLVx-2" value="" style="endArrow=none;html=1;rounded=0;entryX=0.25;entryY=1;entryDx=0;entryDy=0;" edge="1" parent="1" target="v-mCjUrIHsIha3mUhuW3-7">
          <mxGeometry width="50" height="50" relative="1" as="geometry">
            <mxPoint x="350" y="170" as="sourcePoint" />
            <mxPoint x="410" y="50" as="targetPoint" />
          </mxGeometry>
        </mxCell>
        <mxCell id="hiScEYmqXI0lTK3PaLVx-3" value="" style="endArrow=none;html=1;rounded=0;entryX=0;entryY=0.5;entryDx=0;entryDy=0;" edge="1" parent="1" target="v-mCjUrIHsIha3mUhuW3-6">
          <mxGeometry width="50" height="50" relative="1" as="geometry">
            <mxPoint x="350" y="170" as="sourcePoint" />
            <mxPoint x="400" y="150" as="targetPoint" />
          </mxGeometry>
        </mxCell>
        <mxCell id="hiScEYmqXI0lTK3PaLVx-4" value="DEȚINERE" style="text;html=1;align=center;verticalAlign=middle;resizable=0;points=[];autosize=1;strokeColor=none;fillColor=none;" vertex="1" parent="1">
          <mxGeometry x="285" y="140" width="80" height="30" as="geometry" />
        </mxCell>
      </root>
    </mxGraphModel>
  </diagram>
</mxfile>
